/* XPM */
static char *_d6636169524402cb018be1c9dabaf6dQkZYACo58CuQ2ms2[] = {
/* columns rows colors chars-per-pixel */
"16 16 17 1 ",
"  c None",
". c black",
"X c #464646",
"o c gray49",
"O c #ED1C24",
"+ c #FF7E00",
"@ c #6BAE60",
"# c #72B560",
"$ c #7ABD60",
"% c #FFF200",
"& c #519AB1",
"* c #569FB6",
"= c gray53",
"- c #909090",
"; c #929292",
": c #989898",
"> c gray62",
/* pixels */
"                ",
"                ",
"                ",
" %%%%%%%$#@ Xo=-",
" %%%%%%%*&@ X-:>",
".%%%%%%%*&@.X-:>",
".%%%%%O%*&@XX-:>",
".%%%%%+%*&@XX-:>",
".%%%%%+%*&@XX-:>",
".%%%%%O%*&@XX-:>",
".%%%%%%%*&@.X-:>",
" %%%%%%%*&@ X-:>",
" %%%%%%%$#@ Xo=-",
"                ",
"                ",
"                "
};
